# Blender v3.1.2 OBJ File: ''
# www.blender.org
mtllib FLAT.mtl
o Cube_Cube.001
v 19.471767 -0.751207 19.581285
v 19.471767 0.301097 19.581949
v 19.471767 -0.726542 -19.581949
v 19.471767 0.325762 -19.581285
v -19.471767 -0.751207 19.581285
v -19.471767 0.301097 19.581949
v -19.471767 -0.726542 -19.581949
v -19.471767 0.325762 -19.581285
vt 0.625000 0.500000
vt 0.875000 0.500000
vt 0.875000 0.750000
vt 0.625000 0.750000
vt 0.375000 0.750000
vt 0.625000 1.000000
vt 0.375000 1.000000
vt 0.375000 0.000000
vt 0.625000 0.000000
vt 0.625000 0.250000
vt 0.375000 0.250000
vt -0.005092 -0.003344
vt 1.003811 -0.003344
vt 1.003811 1.005559
vt -0.005092 1.005559
vt 0.375000 0.500000
vn 0.0000 -1.0000 -0.0006
vn 0.0000 0.0006 -1.0000
vn -1.0000 -0.0000 0.0000
vn 0.0000 1.0000 0.0006
vn 1.0000 0.0000 0.0000
vn 0.0000 -0.0006 1.0000
usemtl Material.003
s off
f 1/1/1 5/2/1 7/3/1 3/4/1
f 4/5/2 3/4/2 7/6/2 8/7/2
f 8/8/3 7/9/3 5/10/3 6/11/3
f 6/12/4 2/13/4 4/14/4 8/15/4
f 2/16/5 1/1/5 3/4/5 4/5/5
f 6/11/6 5/10/6 1/1/6 2/16/6
