# Blender v3.1.2 OBJ File: ''
# www.blender.org
mtllib WALL.mtl
o Cube.002
v -19.400993 -0.755397 19.599323
v -20.396999 -0.758121 19.599323
v -19.400993 -0.755397 -20.566509
v -20.396999 -0.758121 -20.566509
v -19.454021 18.641956 19.599323
v -20.450027 18.639233 19.599323
v -19.454021 18.641956 -20.566509
v -20.450027 18.639233 -20.566509
vt 0.375000 0.000000
vt 0.625000 0.000000
vt 0.625000 0.250000
vt 0.375000 0.250000
vt 0.625000 0.500000
vt 0.375000 0.500000
vt 0.625000 0.750000
vt 0.375000 0.750000
vt 0.625000 1.000000
vt 0.375000 1.000000
vt 0.939026 -0.000354
vt 0.947306 0.994503
vt 0.009821 0.994170
vt 0.001541 -0.000687
vt 0.875000 0.500000
vt 0.875000 0.750000
vn 0.0027 -1.0000 0.0000
vn -0.0000 0.0000 -1.0000
vn -0.0027 1.0000 0.0000
vn -0.0000 0.0000 1.0000
vn 1.0000 0.0027 0.0000
vn -1.0000 -0.0027 0.0000
usemtl Material.001
s off
f 1/1/1 2/2/1 4/3/1 3/4/1
f 3/4/2 4/3/2 8/5/2 7/6/2
f 7/6/3 8/5/3 6/7/3 5/8/3
f 5/8/4 6/7/4 2/9/4 1/10/4
f 3/11/5 7/12/5 5/13/5 1/14/5
f 8/5/6 4/15/6 2/16/6 6/7/6
