# Blender v3.1.2 OBJ File: ''
# www.blender.org
mtllib Окно.mtl
o Cube_Cube.001
v -17.250256 -0.384731 12.473890
v -17.250256 0.384731 12.473890
v -17.250256 -0.384731 -12.473890
v -17.250256 0.384731 -12.473890
v 17.250256 -0.384731 12.473890
v 17.250256 0.384731 12.473890
v 17.250256 -0.384731 -12.473890
v 17.250256 0.384731 -12.473890
vt 0.375000 0.000000
vt 0.625000 0.000000
vt 0.625000 0.250000
vt 0.375000 0.250000
vt 0.625000 0.500000
vt 0.375000 0.500000
vt 0.625000 0.750000
vt 0.375000 0.750000
vt 0.625000 1.000000
vt 0.375000 1.000000
vt 0.125000 0.500000
vt 0.125000 0.750000
vt 0.009773 -0.005123
vt 0.986501 -0.005123
vt 0.986501 1.003946
vt 0.009773 1.003946
vn -1.0000 0.0000 0.0000
vn 0.0000 0.0000 -1.0000
vn 1.0000 0.0000 0.0000
vn 0.0000 0.0000 1.0000
vn 0.0000 -1.0000 0.0000
vn 0.0000 1.0000 0.0000
usemtl Material.001
s off
f 1/1/1 2/2/1 4/3/1 3/4/1
f 3/4/2 4/3/2 8/5/2 7/6/2
f 7/6/3 8/5/3 6/7/3 5/8/3
f 5/8/4 6/7/4 2/9/4 1/10/4
f 3/11/5 7/6/5 5/8/5 1/12/5
f 8/13/6 4/14/6 2/15/6 6/16/6
